<?xml version="1.0" standalone="no"?><!DOCTYPE svg PUBLIC "-//W3C//DTD SVG 1.1//EN" "http://www.w3.org/Graphics/SVG/1.1/DTD/svg11.dtd"><svg t="1499239363564" class="icon" style="" viewBox="0 0 1201 1024" version="1.1" xmlns="http://www.w3.org/2000/svg" p-id="1037" xmlns:xlink="http://www.w3.org/1999/xlink" width="56.296875" height="48"><defs><style type="text/css"></style></defs><path d="M997.884 790.905c3.393 10.175 5.937 23.241 7.631 39.189a451.035 451.035 0 0 1 2.549 47.842c0 15.943-1.192 31.045-3.564 45.293-2.374 14.252-5.938 25.107-10.689 32.573-3.394 4.75-13.061 9.84-29.009 15.268-15.947 5.43-35.458 10.689-58.53 15.777-23.07 5.093-49.028 9.84-77.866 14.253a2617.937 2617.937 0 0 1-86.016 11.704c-28.502 3.393-56.153 6.108-82.954 8.145-26.806 2.036-50.049 3.051-69.727 3.051-29.858 0-65.147-2.203-105.865-6.616-40.712-4.409-80.41-9.668-119.091-15.777-38.683-6.108-72.608-12.382-101.788-18.832-29.18-6.446-46.826-12.041-52.93-16.793-7.465-5.43-13.066-22.055-16.796-49.877-3.735-27.823-2.208-63.448 4.58-106.88 4.072-25.108 14.248-44.107 30.538-57.003 16.283-12.89 35.453-23.071 57.508-30.536 22.057-7.461 44.79-14.249 68.2-20.358 23.412-6.107 43.94-14.926 61.582-26.463 14.252-8.824 25.277-17.305 33.08-25.45 7.809-8.14 13.232-16.284 16.29-24.43 3.051-8.143 4.58-16.626 4.58-25.443 0-8.824-0.343-18.325-1.021-28.501-1.353-16.29-6.617-28.843-15.777-37.667-9.16-8.817-19.506-17.983-31.045-27.48-5.428-4.75-10.18-11.367-14.247-19.848a351.201 351.201 0 0 1-11.202-25.958 1809.507 1809.507 0 0 1-10.176-31.552c-4.75-1.358-9.501-3.735-14.252-7.13-4.073-3.393-8.482-8.14-13.233-14.247-4.751-6.109-8.819-14.932-12.211-26.465-3.394-11.539-4.581-21.885-3.565-31.045 1.02-9.165 2.886-17.139 5.6-23.921 2.715-7.466 6.782-14.59 12.212-21.378-0.678-25.785 0.68-51.57 4.073-77.357 2.715-21.719 7.636-44.79 14.76-69.22 7.125-24.428 17.471-46.484 31.045-66.162 12.896-18.325 27.315-33.422 43.263-45.297 15.946-11.875 32.06-21.206 48.348-27.994 16.285-6.782 32.74-11.532 49.367-14.247C568.16 1.358 584.279 0 599.884 0c19.683 0 38.512 2.373 56.496 7.124 17.982 4.751 34.78 10.86 50.385 18.325 15.61 7.461 29.52 15.776 41.733 24.937 12.217 9.16 22.055 18.492 29.522 27.993 16.962 21.714 29.687 45.635 38.168 71.762 8.482 26.124 14.42 50.723 17.813 73.794 4.073 27.144 5.766 54.288 5.093 81.432 4.746 2.715 8.482 6.787 11.196 12.216 2.715 4.751 4.917 10.86 6.616 18.321 1.695 7.465 1.866 16.625 0.509 27.485-2.036 14.248-5.259 25.615-9.674 34.096-4.409 8.487-9.326 15.103-14.755 19.85-6.109 5.43-12.554 9.164-19.341 11.2-2.715 10.856-5.767 21.373-9.16 31.553a252.667 252.667 0 0 1-11.709 25.958c-4.41 8.48-9.331 15.097-14.756 19.848-6.11 5.43-11.875 10.01-17.305 13.74-5.43 3.73-10.18 7.637-14.253 11.704-4.072 4.073-7.461 8.995-10.176 14.761-2.715 5.767-4.75 12.725-6.108 20.87-2.036 10.175-2.715 20.527-2.036 31.044 0.679 10.518 3.394 21.035 8.144 31.553 4.746 10.517 12.554 20.527 23.409 30.03 10.858 9.501 25.448 17.982 43.77 25.449 16.967 6.782 35.459 12.72 55.477 17.812 20.015 5.088 39.357 11.196 58.018 18.32 18.662 7.125 35.289 16.119 49.879 26.974 14.59 10.859 24.936 25.106 31.045 42.754z m-390.87 166.934c3.393 0 8.652-2.208 15.776-6.617 7.125-4.41 14.082-9.668 20.865-15.777 6.787-6.108 12.725-12.216 17.812-18.325 5.093-6.104 7.636-10.854 7.636-14.248 0-4.072-1.02-11.196-3.05-21.377-2.037-10.175-4.415-21.376-7.13-33.589a6099.281 6099.281 0 0 0-8.14-36.138c-2.715-11.875-5.092-21.542-7.128-29.008 6.787-5.43 12.553-11.368 17.305-17.813 4.75-6.445 7.123-13.061 7.123-19.849 0-5.43-1.865-11.025-5.596-16.796-3.73-5.767-7.974-10.689-12.724-14.756a387.343 387.343 0 0 0-17.305-14.253h-50.894c-6.787 4.75-12.553 9.502-17.305 14.253-4.072 4.067-7.802 8.819-11.196 14.247-3.394 5.43-5.087 10.86-5.087 16.285 0 4.073 2.543 9.502 7.63 16.29 5.09 6.787 11.368 13.232 18.835 19.34-2.037 6.108-4.752 14.927-8.145 26.464-3.394 11.534-6.617 23.58-9.668 36.134-3.057 12.554-5.771 24.429-8.145 35.63-2.372 11.196-3.564 19.506-3.564 24.936 0 3.394 2.544 8.144 7.637 14.248 5.087 6.109 11.196 12.217 18.32 18.325 7.123 6.109 14.082 11.367 20.87 15.777 6.781 4.41 11.875 6.617 15.267 6.617z m0 0" fill="#9c9d9f" p-id="1038"></path></svg>