<?xml version="1.0" standalone="no"?><!DOCTYPE svg PUBLIC "-//W3C//DTD SVG 1.1//EN" "http://www.w3.org/Graphics/SVG/1.1/DTD/svg11.dtd"><svg t="1494743409733" class="icon" style="" viewBox="0 0 1024 1024" version="1.1" xmlns="http://www.w3.org/2000/svg" p-id="3255" xmlns:xlink="http://www.w3.org/1999/xlink" width="80" height="80"><defs><style type="text/css"></style></defs><path d="M198.438 859.529c-0.002 0-0.004 0-0.006 0-18.217-0.001-36.921-5.548-50.033-14.838-11.657-8.259-18.992-22.774-20.66-40.869-2.013-21.86 4.393-43.922 16.319-56.207 14.941-15.387 225.695-210.87 273.875-255.539l-22.147-23.801c-8.873 0.942-25.463 2.414-42.574 2.414-15.001 0-27.377-1.154-36.785-3.433-6.262-1.514-17.044-6.502-45.083-31.825-17.808-16.084-39.38-37.613-60.743-60.621-18.843-20.294-80.994-88.849-89.606-118.969-11.39-39.836-5.617-86.046-4.576-93.467 0.294-19.809 9.281-55.654 41.753-55.654 20.631 0 46.079 15.581 77.799 47.631 17.923 18.109 219.487 218.39 265.255 263.862l27.535-28.395c-12.012-10.855-29.744-29.515-33.581-47.958-5.242-25.188 0.483-36.809 11.884-59.965 1.086-2.203 2.239-4.545 3.458-7.049 19.505-40.058 163.474-169.133 188.244-188.128 7.346-5.631 15.115-8.487 23.093-8.487 13.431 0 25.966 8.438 32.713 22.017 5.607 11.285 5.414 23.14-0.497 30.94-8.758 11.55-136.359 142.702-153.001 159.796-4.167 5.275-13.060 20.060-7.702 25.412 0.497 0.497 1.031 0.91 2.505 0.91 6.787-0.001 17.517-7.696 21.575-11.365 7.884-7.802 138.657-137.174 150.34-148.286 6.663-6.338 14.556-9.69 22.815-9.69 15.636 0 27.959 11.707 33.238 23.31 5.225 11.49 4.171 23.137-2.821 31.158-11.058 12.684-142.886 157.191-148.492 163.338l-0.421 0.442c-1.773 1.836-9.569 10.67-3.563 18.329 0.844 1.078 1.443 1.373 2.775 1.373 5.681-0.001 14.907-6.073 18.826-9.486 6.683-6.59 138.819-136.869 153.639-151.593 5.332-5.295 12.442-8.093 20.563-8.093 16.639 0 35.847 12.091 42.819 26.953 4.364 9.301 3.419 18.781-2.59 26.009-0.617 0.743-1.561 1.889-2.803 3.398-36.903 44.83-71.123 83.861-101.706 116.009-82.192 86.401-112.698 96.391-128.495 96.391-2.004 0-3.963-0.183-5.822-0.545-26.234-5.11-49.371-20.519-62.074-30.409l-30.46 35.483c45.489 44.353 256.426 250.023 266.012 259.37 8.81 8.591 17.137 28.469 16.005 49.842-0.962 18.16-8.618 33.383-22.137 44.026-12.385 9.749-28.751 15.118-46.085 15.118-19.076 0-36.266-6.543-44.866-17.083-8.507-10.425-156.050-175.75-240.668-270.431l-256.1 271.129c-10.669 11.295-27.342 17.516-46.945 17.516zM405.62 441.287l48.507 52.127-9.401 8.711c-2.661 2.465-266.258 246.777-282.31 263.31-6.519 6.713-10.473 22.206-9.2 36.039 0.957 10.383 4.592 18.525 9.974 22.342 8.817 6.246 22.321 10.128 35.242 10.128 0.001 0 0.003 0 0.005 0 12.311 0 22.642-3.463 28.345-9.499l275.219-291.367 9.277 10.379c9.765 10.925 239.301 267.722 250.695 281.685 3.035 3.721 12.845 7.675 25.042 7.675 11.619 0 22.363-3.423 30.259-9.637 7.668-6.034 11.844-14.541 12.414-25.279 0.74-13.968-4.934-26.873-8.318-30.172-10.748-10.481-274.608-267.751-274.608-267.751l-8.595-8.381 63.126-73.536 9.755 9.29c0.266 0.251 28.15 26.38 59.598 32.506 0.172 0.034 0.475 0.074 0.929 0.074 19.963 0 87.055-53.185 210.447-203.078 0.778-0.945 1.441-1.751 1.984-2.41-1.859-4.22-11.762-12.108-19.657-12.108-1.239 0-2.090 0.222-2.533 0.661-15.163 15.062-152.573 150.54-153.959 151.906l-0.468 0.439c-1.855 1.655-18.63 16.161-36.064 16.164-9.26 0.001-17.184-3.862-22.916-11.173-16.127-20.573-3.648-42.847 5.411-52.005 5.83-6.393 135.577-148.628 147.7-162.45 0.105-0.916-0.349-3.836-2.855-7.147-2.379-3.143-5.542-5.174-8.061-5.174-1.594 0-3.339 0.89-5.183 2.644-11.609 11.040-148.778 146.749-150.163 148.117l-0.348 0.332c-2.034 1.868-20.417 18.245-39.034 18.247-7.973 0.001-15.092-2.901-20.592-8.394-18.747-18.73-4.837-46.622 6.339-60.15l0.697-0.778c53.946-55.406 140.91-145.343 150.771-157.104-0.044-1.507-0.988-5.081-3.758-8.39-1.332-1.591-4.074-4.26-7.479-4.26-2.219 0-4.75 1.079-7.525 3.206-11.728 8.993-53.153 45.472-93.977 84.451-68.795 65.689-83.642 88.022-86.834 94.574-1.236 2.541-2.406 4.915-3.506 7.151-10.697 21.719-13.238 26.88-9.789 43.45 2.754 13.241 22.954 32.809 35.037 42.035l11.444 8.736-65.143 67.191-9.186-9.125c-2.541-2.524-254.391-252.725-274.595-273.14-34.481-34.841-52.15-40.043-59.614-40.043-2.604 0-8.699 0-13.049 12.713-3.035 8.873-3.129 18.283-3.129 18.377l-0.006 0.932-0.141 0.96c-0.069 0.451-6.851 46.459 3.745 83.525 4.448 15.557 38.666 59.971 83.212 108.007 50.757 54.734 85.897 83.425 93.667 85.582 7.413 1.792 17.765 2.707 30.741 2.707 22.992 0 45.643-2.935 45.869-2.963l6.54-0.861z" p-id="3256" fill="#ffffff"></path></svg>