<?xml version="1.0" standalone="no"?><!DOCTYPE svg PUBLIC "-//W3C//DTD SVG 1.1//EN" "http://www.w3.org/Graphics/SVG/1.1/DTD/svg11.dtd"><svg t="1494739160217" class="icon" style="" viewBox="0 0 1024 1024" version="1.1" xmlns="http://www.w3.org/2000/svg" p-id="5782" xmlns:xlink="http://www.w3.org/1999/xlink" width="48" height="48"><defs><style type="text/css"></style></defs><path d="M512 965.41879c-15.58086 0-30.228465-6.067182-41.24538-17.084097L75.665307 553.24538c-22.74298-22.74298-22.74298-59.747779 0-82.490759L470.75462 75.665307c11.016915-11.016915 25.665543-17.084097 41.24538-17.084097s30.228465 6.067182 41.24538 17.084097l395.089313 395.089313c22.74298 22.74298 22.74298 59.748802 0.001023 82.490759L553.244356 948.334693C542.228465 959.351608 527.579837 965.41879 512 965.41879zM512 68.814272c-12.847609 0-24.924669 5.002944-34.009582 14.086833L82.901105 477.990418c-18.753109 18.753109-18.753109 49.267077 0 68.020186L477.990418 941.098895c9.083889 9.083889 21.161972 14.086833 34.009582 14.086833s24.924669-5.002944 34.009582-14.086833l395.089313-395.089313c18.752086-18.753109 18.752086-49.267077 0-68.020186L546.009582 82.901105C536.924669 73.817216 524.846586 68.814272 512 68.814272z" p-id="5783" fill="#fff"></path></svg>