<?xml version="1.0" standalone="no"?><!DOCTYPE svg PUBLIC "-//W3C//DTD SVG 1.1//EN" "http://www.w3.org/Graphics/SVG/1.1/DTD/svg11.dtd"><svg t="1495601684275" class="icon" style="" viewBox="0 0 1028 1024" version="1.1" xmlns="http://www.w3.org/2000/svg" p-id="9963" xmlns:xlink="http://www.w3.org/1999/xlink" width="32.125" height="32"><defs><style type="text/css"></style></defs><path d="M920.576 803.84 920.576 103.424c0-32.256-26.112-58.368-58.368-58.368L161.792 45.056c-32.256 0-58.368 26.112-58.368 58.368l0 787.968c0 48.128 39.424 87.552 87.552 87.552L906.24 978.944c8.192 0 14.848-6.656 14.848-14.848 0-8.192-6.656-14.848-14.848-14.848l-14.848 0 0-116.736C907.776 833.024 920.576 819.712 920.576 803.84zM146.432 116.736c0-15.872 13.312-29.184 29.184-29.184L220.16 87.552l0 702.464-29.184 0c-22.528 0-27.648 0-45.056 12.288L145.92 116.736zM848.896 936.448 190.976 936.448c-32.256 0-48.128-19.456-48.128-51.712 0-32.256 15.872-51.712 48.128-51.712l657.92 0L848.896 936.448zM263.168 790.528 263.168 87.552l585.728 0c15.872 0 29.184 13.312 29.184 29.184l0 673.28L263.168 790.016z" p-id="9964" fill="#ffffff"></path><path d="M650.24 416.768 373.248 416.768c-8.192 0-14.848 7.168-14.848 16.384 0 9.216 6.656 16.384 14.848 16.384L650.24 449.536c8.192 0 14.848-7.168 14.848-16.384C665.088 423.936 658.432 416.768 650.24 416.768z" p-id="9965" fill="#ffffff"></path><path d="M752.64 329.216 373.248 329.216c-8.192 0-14.848 7.168-14.848 16.384s6.656 16.384 14.848 16.384L752.64 361.984c8.192 0 14.848-7.168 14.848-16.384S760.832 329.216 752.64 329.216z" p-id="9966" fill="#ffffff"></path><path d="M373.248 273.92l175.104 0c8.192 0 14.848-7.168 14.848-15.872s-6.656-15.872-14.848-15.872L373.248 242.176c-8.192 0-14.848 7.168-14.848 15.872S365.056 273.92 373.248 273.92z" p-id="9967" fill="#ffffff"></path></svg>