<?xml version="1.0" standalone="no"?><!DOCTYPE svg PUBLIC "-//W3C//DTD SVG 1.1//EN" "http://www.w3.org/Graphics/SVG/1.1/DTD/svg11.dtd"><svg t="1494743210758" class="icon" style="" viewBox="0 0 1024 1024" version="1.1" xmlns="http://www.w3.org/2000/svg" p-id="1578" xmlns:xlink="http://www.w3.org/1999/xlink" width="80" height="80"><defs><style type="text/css"></style></defs><path d="M965.001793 326.605569 735.906048 97.508801c-10.446933-10.446933-24.139793-15.670911-37.832653-15.670911s-27.384697 5.223978-37.832653 15.670911l-33.818223 33.818223L398.221142 131.327024l-34.465976-34.465976c-10.446933-10.446933-24.139793-15.670911-37.832653-15.670911-13.691837 0-27.384697 5.222955-37.832653 15.669888L58.995137 325.956793c-20.893866 20.893866-20.893866 54.770418 0 75.664284l157.63418 157.63418c1.500167 1.500167 3.072989 2.87856 4.697999 4.16281l0 325.264015c0 29.891797 24.232914 54.125735 54.124711 54.125735l473.092875 0c29.891797 0 54.125735-24.233937 54.125735-54.125735L802.670637 564.066843c1.623987-1.284249 3.196809-2.663666 4.695952-4.16281L965.001793 402.26883C985.896682 381.374964 985.896682 347.499435 965.001793 326.605569zM589.584518 168.166047l-47.072085 47.072085-60.380182 0-47.072085-47.072085L589.584518 168.166047zM938.95251 376.22057 781.30912 533.862937c-0.412392 0.413416-0.914836 0.854461-1.489934 1.308809-8.834202 6.987135-13.986549 17.630542-13.986549 28.894074l0 324.617285c0 9.531074-7.754614 17.286712-17.286712 17.286712L275.453051 905.969816c-9.531074 0-17.285688-7.754614-17.285688-17.286712L258.167363 563.41909c0-11.265578-5.154393-21.911032-13.991666-28.898167-0.576121-0.455371-1.079588-0.898463-1.49505-1.313925L85.04442 375.572818c-6.496971-6.497994-6.496971-17.069771 0-23.566742l229.094722-229.094722c4.247744-4.246721 9.205663-4.881171 11.783371-4.881171l0 0c2.578732 0 7.53665 0.63445 11.783371 4.881171l129.166825 129.166825 0.101307 0 90.050945 0 0.74599 0 86.646406-86.645382c2.468215-1.517563 4.545526-3.595898 6.064113-6.064113l35.809577-35.809577c4.246721-4.246721 9.205663-4.881171 11.783371-4.881171 2.578732 0 7.535627 0.63445 11.783371 4.881171L938.953534 352.654852c4.245697 4.245697 4.881171 9.204639 4.881171 11.781324C943.834704 367.014908 943.200254 371.972826 938.95251 376.22057z" p-id="1579" fill="#ffffff"></path></svg>