<?xml version="1.0" standalone="no"?><!DOCTYPE svg PUBLIC "-//W3C//DTD SVG 1.1//EN" "http://www.w3.org/Graphics/SVG/1.1/DTD/svg11.dtd"><svg t="1499243811556" class="icon" style="" viewBox="0 0 1024 1024" version="1.1" xmlns="http://www.w3.org/2000/svg" p-id="4940" xmlns:xlink="http://www.w3.org/1999/xlink" width="128" height="128"><defs><style type="text/css"></style></defs><path d="M717.5 309.8l74.6 76.6L752 545.5H269.8L229.6 386.4l74.6-76.6h413.3z m10-41.5H294.2L185.9 376.6l54.2 216.6h541.6l54.2-216.6-108.4-108.3" p-id="4941" fill="#4ba1ea"></path><path d="M736 593c61.9 0 112.6 50.7 112.6 112.6 0 95.7-73.2 168.9-168.9 168.9H342c-95.7 0-168.9-73.2-168.9-168.9 0-61.9 50.7-112.6 112.6-112.6H736z m-12.5-45.4H298.2c-90.4 0-159.5 69.1-159.5 159.5 0 116.9 95.7 212.6 212.6 212.6h318.9c116.9 0 212.6-95.7 212.6-212.6 0.2-90.4-68.9-159.5-159.3-159.5M127 185.5c-2.6 14.9 7.5 34.6 11 39.5 42 59.4 85.4 63.8 142.4 80.1l-74.8 74.8c-34.9-15-112.5-47-102.5-129.6 1.9-16.1 8.6-36.6 16.7-52.9l7.2-11.9z m46.6-81.2S64.2 159 64.2 268.4s136.7 153 136.7 153l136.7-153.1h-10.9c-27.3 0-114.8-5.5-153.1-54.7-27.4-38.2 0-109.3 0-109.3M904.2 197.4c8.1 16.3 14.8 36.7 16.7 52.9 10 82.6-67.6 114.6-102.5 129.6l-74.8-74.8c56.9-16.3 100.4-20.6 142.4-80.1 3.5-4.9 13.6-24.6 11-39.5l7.2 11.9z m-53.8-93.1s27.3 71.1 0 109.4c-38.3 49.2-125.8 54.7-153.1 54.7h-10.9l136.7 153.1s136.7-43.7 136.7-153.1-109.4-164.1-109.4-164.1" p-id="4942" fill="#4ba1ea"></path><path d="M308.8 690.6z m-40.6 0c0 22.4 18.1 40.5 40.5 40.5s40.5-18.1 40.5-40.5-18.1-40.5-40.5-40.5c-22.3 0-40.5 18.1-40.5 40.5M424.3 459.6z m-28.9 0c0 15.9 12.9 28.9 28.9 28.9 15.9 0 28.9-12.9 28.9-28.9 0-15.9-12.9-28.9-28.9-28.9-16 0-28.9 13-28.9 28.9M597.5 459.6z m-28.9 0c0 15.9 12.9 28.9 28.9 28.9 15.9 0 28.9-12.9 28.9-28.9 0-15.9-12.9-28.9-28.9-28.9-16 0-28.9 13-28.9 28.9M713 690.6z m-40.5 0c0 22.4 18.1 40.5 40.5 40.5s40.5-18.1 40.5-40.5-18.1-40.5-40.5-40.5-40.5 18.1-40.5 40.5" p-id="4943" fill="#4ba1ea"></path></svg>