<?xml version="1.0" standalone="no"?><!DOCTYPE svg PUBLIC "-//W3C//DTD SVG 1.1//EN" "http://www.w3.org/Graphics/SVG/1.1/DTD/svg11.dtd"><svg class="icon" width="32px" height="32.00px" viewBox="0 0 1024 1024" version="1.1" xmlns="http://www.w3.org/2000/svg"><path d="M855.493 412.089c-10.667-6.095-47.34-13.183-47.34-13.183s32.758-18.323 62.921-48.539c25.19-25.234 47.902-61.058 54.532-79.699 7.079-19.907 10.615-73.356 5.993-106.067-2.7-19.101-13.782-27.566-13.782-27.566s-11.086-4.793-19.177 0c-3.191 1.891-8.962 6.957-10.787 10.187-6.382 11.304-10.075 34.185-16.778 49.139-6.817 15.206-38.2 45.898-51.76 55.206-19.096 13.108-89.062 33.253-90.649 33.71-4.906-6.376-10.029-12.33-15.441-17.605-35.055-34.175-101.723-49.089-159.582-53.572-7.958-8.742-20.156-23.422-26.933-38.038-7.192-15.506 2.494-41.157 2.494-41.157s-24.292 12.393-27.887 30.594c-2.33 11.796 1.373 33.528 4.21 47.162-4.52 0.097-9.169 0.247-14.042 0.499-7.066-3.362-13.468-8.329-16.911-15.751-7.192-15.506-4.695-33.778-4.695-33.778s-13.058 5.014-16.653 23.216c-1.463 7.409-0.532 18.751 1.058 29.548-49.614 5.982-104.34 19.342-132.966 42.886-9.402 7.733-17.989 16.629-25.906 26.31l0.075-0.274c0 0-71.481-20.494-90.797-33.752-13.56-9.308-44.944-40-51.759-55.206-6.704-14.953-10.398-37.834-16.779-49.139-1.822-3.229-7.596-8.297-10.787-10.187-8.091-4.793-19.176 0-19.176 0s-11.084 8.465-13.783 27.566c-4.622 32.711-1.086 86.16 5.993 106.067 6.628 18.64 29.342 54.466 54.533 79.699 30.163 30.216 62.921 48.539 62.921 48.539s-36.674 7.089-47.341 13.183c-11.245 6.426-31 29.856-38.95 34.157-10.328 5.587-34.157 5.393-34.157 5.393s13.070 35.804 28.54 42.525c8.617 3.743 26.95 12.387 46.364 12.605 24.467 0.277 51.671-8.018 62.936-11.861-1.221 23.941-4.216 58.62-6.491 95.020-1.192 0.872-2.587 1.622-3.712 2.535-53.933 43.745-45.543 114.792-45.543 133.033 0 104.582 127.64 201.946 333.781 206.141 179.010 3.642 309.903-71.316 327.879-189.967 7.345-48.476 4.16-117.301-42.178-151.059-2.392-36.774-5.603-71.488-6.325-95.738 11.198 3.828 38.494 12.175 63.040 11.898 19.415-0.218 37.748-8.862 46.364-12.605 15.473-6.721 28.541-42.525 28.541-42.525s-23.83 0.193-34.157-5.393c-7.951-4.303-27.707-27.733-38.952-34.158zM435.623 471.155c0 2.977-3.616 3.595-6.593 3.595 0 0-30.412-22.396-43.445-23.745-3.423-0.355-20.749-2.472-29.213 0.449-9.754 3.367-32.513 20.299-32.513 20.299-2.977 0-5.391-2.413-5.391-5.39s0-5.39 3.595-8.693c0 0 25.168-15.879 37.453-18.277 3.085-0.603 20.974-2.097 29.063 0 12.112 3.14 39.255 21.579 39.255 21.579 1.868 0 4.191 2.563 7.787 5.012v5.169zM679.223 468.81c0 0-32.864-18.613-45.966-18.397-3.442 0.056-20.897 0.018-28.952 3.927-9.284 4.506-29.86 24.030-29.86 24.030-2.956 0.355-5.639-1.753-5.994-4.708-0.355-2.956-0.642-5.352 2.535-9.060 0 0 23.096-18.766 35.007-22.61 2.993-0.966 20.574-4.582 28.856-3.464 12.399 1.674 41.546 16.748 41.546 16.748 1.855-0.222 4.467 2.046 8.329 4.047l0.616 5.132c0.353 2.957-3.162 4.001-6.118 4.357z" fill="#ffffff" /></svg>