<?xml version="1.0" standalone="no"?><!DOCTYPE svg PUBLIC "-//W3C//DTD SVG 1.1//EN" "http://www.w3.org/Graphics/SVG/1.1/DTD/svg11.dtd"><svg t="1494639645623" class="icon" style="" viewBox="0 0 1024 1024" version="1.1" xmlns="http://www.w3.org/2000/svg" p-id="3865" xmlns:xlink="http://www.w3.org/1999/xlink" width="64" height="64"><defs><style type="text/css"></style></defs><path d="M755.2 128c-83.2-83.2-192-128-313.6-128S211.2 44.8 128 128C-44.8 300.8-44.8 582.4 128 755.2c83.2 83.2 192 128 313.6 128s230.4-44.8 313.6-128c172.8-172.8 172.8-454.4 0-627.2z m-38.4 588.8C646.4 787.2 544 832 441.6 832s-198.4-38.4-275.2-115.2C19.2 563.2 19.2 320 166.4 166.4 236.8 96 339.2 51.2 441.6 51.2s198.4 38.4 275.2 115.2c153.6 153.6 153.6 396.8 0 550.4z m300.8 262.4l-140.8-140.8c-12.8-12.8-25.6-12.8-38.4 0-12.8 12.8-12.8 25.6 0 38.4l140.8 140.8c6.4 6.4 12.8 6.4 19.2 6.4s12.8 0 19.2-6.4c6.4-12.8 6.4-32 0-38.4z" p-id="3866" fill="#ffffff"></path></svg>