<?xml version="1.0" standalone="no"?><!DOCTYPE svg PUBLIC "-//W3C//DTD SVG 1.1//EN" "http://www.w3.org/Graphics/SVG/1.1/DTD/svg11.dtd"><svg t="1499243589177" class="icon" style="" viewBox="0 0 1024 1024" version="1.1" xmlns="http://www.w3.org/2000/svg" p-id="4724" xmlns:xlink="http://www.w3.org/1999/xlink" width="128" height="128"><defs><style type="text/css"></style></defs><path d="M900.288 355.136l-239.232 0c5.376-342.592-196.928-303.168-189.888-244.864C491.84 217.28 459.968 300.416 425.6 355.136L123.712 355.136C90.752 355.136 64 381.888 64 414.848l0 477.888c0 32.96 26.752 59.712 59.712 59.712l731.712 0c33.024 0 59.712-26.752 59.712-59.712l0-89.6L960 803.136 960 414.848C960 381.888 933.248 355.136 900.288 355.136zM377.6 922.56 153.6 922.56c-33.024 0-59.712-26.752-59.712-59.712L93.888 444.736c0-32.96 26.752-59.712 59.712-59.712l224 0L377.6 922.56zM930.112 504.448l-179.2 0c-8.256 0-14.912 6.656-14.912 14.912 0 8.256 6.656 14.912 14.912 14.912l179.2 0 0 104.512-179.2 0c-8.256 0-14.912 6.656-14.912 14.912 0 8.256 6.656 14.912 14.912 14.912l179.2 0 0 104.512-179.2 0c-8.256 0-14.912 6.656-14.912 14.912 0 8.256 6.656 14.912 14.912 14.912l134.4 0 0 59.712c0 33.024-26.752 59.712-59.712 59.712L407.488 922.368l0-537.6 38.4 0c28.672-42.496 71.168-128.896 52.416-249.728-5.056-52.928 147.584-88 131.84 249.728L870.4 384.768c33.024 0 59.712 26.752 59.712 59.712L930.112 504.448zM243.2 847.936c24.768 0 44.8-20.032 44.8-44.8 0-24.768-20.032-44.8-44.8-44.8s-44.8 20.032-44.8 44.8C198.4 827.84 218.432 847.936 243.2 847.936z" p-id="4725" fill="#4ba1ea"></path></svg>