<?xml version="1.0" standalone="no"?><!DOCTYPE svg PUBLIC "-//W3C//DTD SVG 1.1//EN" "http://www.w3.org/Graphics/SVG/1.1/DTD/svg11.dtd"><svg t="1494639813016" class="icon" style="" viewBox="0 0 1072 1024" version="1.1" xmlns="http://www.w3.org/2000/svg" p-id="6291" xmlns:xlink="http://www.w3.org/1999/xlink" width="33.5" height="32"><defs><style type="text/css"></style></defs><path d="M324.655628 691.414326l552.793302 0c26.314419 0 52.652651-17.503256 61.416186-43.746233l105.305302-455.108465c8.787349-17.503256 0-35.006512-8.787349-52.509767-8.763535-17.503256-35.101767-26.266791-52.628837-26.266791L228.137674 113.78307 201.823256 0 35.101767 0C17.550884 0 0 8.763535 0 26.266791c0 17.503256 17.550884 35.006512 35.101767 35.006512l114.068837 0 52.652651 227.542326 0 0c0 8.739721 0 8.739721 0 17.503256l78.96707 323.82214c-35.101767 17.503256-70.203535 61.273302-70.203535 113.78307 0 35.006512 17.550884 61.273302 35.101767 78.776558-17.550884 17.503256-35.101767 52.509767-35.101767 78.776558 0 61.273302 52.628837 113.78307 114.068837 113.78307 61.416186 0 114.068837-43.770047 114.068837-105.019535 0-17.503256-8.787349-35.006512-8.787349-52.509767l377.308279 0c-8.763535 17.503256-8.763535 35.006512-8.763535 52.509767 0 61.273302 52.628837 113.78307 114.068837 113.78307 61.44 0 114.092651-52.509767 114.092651-113.78307s-43.865302-105.019535-105.305302-113.78307L912.550698 796.457674 324.655628 796.457674l0 0c-26.314419 0-52.652651-26.266791-52.652651-52.509767C280.790326 717.681116 298.341209 691.414326 324.655628 691.414326zM903.787163 857.707163c26.314419 0 52.652651 26.266791 52.652651 52.509767s-17.550884 43.770047-52.652651 43.770047c-26.314419 0-52.652651-26.266791-52.652651-52.509767C851.134512 875.210419 877.472744 857.707163 903.787163 857.707163zM324.655628 953.986977c-26.314419 0-52.652651-26.266791-52.652651-52.509767 0-26.266791 26.314419-52.509767 52.652651-52.509767l0 0 0 0c26.314419 0 52.652651 26.266791 52.652651 52.509767C377.308279 936.483721 350.99386 953.986977 324.655628 953.986977zM877.472744 630.141023 350.99386 630.141023l-70.203535-306.318884 666.86214 0L877.472744 630.141023zM982.778047 175.056372l-17.550884 87.516279L263.239442 262.572651l-17.550884-78.776558L982.778047 175.056372z" p-id="6292" fill="#ffffff"></path></svg>