<?xml version="1.0" standalone="no"?><!DOCTYPE svg PUBLIC "-//W3C//DTD SVG 1.1//EN" "http://www.w3.org/Graphics/SVG/1.1/DTD/svg11.dtd"><svg t="1499091688544" class="icon" style="" viewBox="0 0 1024 1024" version="1.1" xmlns="http://www.w3.org/2000/svg" p-id="4086" xmlns:xlink="http://www.w3.org/1999/xlink" width="32" height="32"><defs><style type="text/css"></style></defs><path d="M1023.85351 511.926755c0 281.559715-230.36704 511.926755-511.926755 511.926755-281.559715 6.891322-511.926755-230.36704-511.926755-511.926755C0 296.326833 133.888536 103.369826 326.845544 29.534236 385.914015 6.891322 445.966962 0 511.926755 0c66.944268 0 126.01274 14.767118 185.081212 37.410032C889.964974 111.245622 1023.85351 296.326833 1023.85351 511.926755zM312.078426 400.681133c0 88.602708 44.301354 163.422772 111.245621 199.84833 29.534236 14.767118 59.068472 29.534236 88.602708 29.534236s59.068472-7.875796 88.602708-22.642915c66.944268-37.410032 111.245622-111.245622 111.245621-199.848329 0-126.01274-88.602708-222.491244-199.848329-222.491244-111.245622-6.891322-199.848329 96.478504-199.848329 215.599922zM511.926755 994.319274c148.655654 0 281.559715-66.944268 371.146898-178.189889-7.875796-88.602708-96.478504-155.546976-215.599922-192.957008C630.063699 660.582409 570.995227 690.116645 511.926755 690.116645c-66.944268 0-119.121418-22.642914-163.422772-66.944268-111.245622 29.534236-199.848329 96.478504-215.599922 178.18989C215.599922 919.49921 356.37978 994.319274 511.926755 994.319274z m0 0" p-id="4087"></path></svg>