<?xml version="1.0" standalone="no"?><!DOCTYPE svg PUBLIC "-//W3C//DTD SVG 1.1//EN" "http://www.w3.org/Graphics/SVG/1.1/DTD/svg11.dtd"><svg t="1495204284861" class="icon" style="" viewBox="0 0 1024 1024" version="1.1" xmlns="http://www.w3.org/2000/svg" p-id="5058" xmlns:xlink="http://www.w3.org/1999/xlink" width="32" height="32"><defs><style type="text/css"></style></defs><path d="M913.467733 338.839467c0 0-102.386133 2.362667-220.72 65.808-2.5248-3.4784-35.757867-140.4768 38.385067-247.163733-14.763733 7.8112-77.390933 33.664-140.608 79.656533C563.853867 204.1376 529.111467 83.674667 567.7568 5.333333 246.059733 186.683733 106.9952 449.002667 106.929067 637.1104c-0.132267 146.514133 37.464533 376.155733 401.645867 376.155733 137.947733 2.4928 204.478933-35.559467 251.293867-74.664533 55.2448-42.912 110.261333-157.930667 76.830933-261.3344C762.558933 428.922667 913.467733 338.839467 913.467733 338.839467L913.467733 338.839467zM721.387733 826.536533c-23.424 39.7568-136.408533 88.574933-231.872 86.734933-106.228267 8.9248-191.162667-39.495467-217.1776-90.411733-72.4032-141.722667 31.986133-233.5808 26.212267-223.147733-5.707733 10.432-6.888533 130.109867 109.210667 176.891733-71.418667-86.610133 34.1856-267.239467 127.256533-305.490133-47.602133 174.8544 84.836267 257.5936 84.836267 257.5936s26.8672 18.766933 65.12-167.1168C757.409067 651.021867 760.525867 786.644267 721.387733 826.536533L721.387733 826.536533zM721.387733 826.536533" p-id="5059" fill="#d81e06"></path></svg>