<svg t="1494639409364" class="icon" style="" viewBox="0 0 1024 1024" version="1.1" xmlns="http://www.w3.org/2000/svg" p-id="1434" xmlns:xlink="http://www.w3.org/1999/xlink" width="16" height="16"><defs><style type="text/css"></style></defs><path d="M835.567 513.243c0 10.595-3.741 20.572-11.22 28.050l-282.394 282.395c-7.478 7.481-17.455 11.221-28.053 11.221s-20.571-3.739-28.050-11.221l-56.729-56.727c-7.479-7.481-11.844-17.457-11.844-28.054 0-10.597 4.364-20.569 11.844-28.050l117.821-117.822h-312.939c-21.818 0-39.896-18.079-39.896-39.896v-79.794c0-21.818 18.078-39.894 39.896-39.894h312.938l-117.821-117.821c-7.479-7.481-11.22-17.454-11.22-28.051 0-10.598 3.739-20.573 11.22-28.053l56.729-56.727c7.479-7.481 17.453-11.221 28.050-11.221s20.574 3.739 28.053 11.221l282.394 282.391c7.479 7.482 11.221 17.456 11.221 28.054zM992.036 513.243c0-264.314-214.445-478.759-478.757-478.759-264.316 0-478.758 214.445-478.758 478.759 0 264.312 214.443 478.757 478.758 478.757 264.312 0 478.757-214.445 478.757-478.757z" fill="#abcd03" p-id="1435"></path></svg>