<?xml version="1.0" standalone="no"?><!DOCTYPE svg PUBLIC "-//W3C//DTD SVG 1.1//EN" "http://www.w3.org/Graphics/SVG/1.1/DTD/svg11.dtd"><svg t="1499777489776" class="icon" style="" viewBox="0 0 1024 1024" version="1.1" xmlns="http://www.w3.org/2000/svg" p-id="2410" xmlns:xlink="http://www.w3.org/1999/xlink" width="32" height="32"><defs><style type="text/css"></style></defs><path d="M691.9872 124.8192l0-69.9904-349.9328 0 0 69.9904-279.9616 0 0 139.9808 69.9904 0 0 559.9104 0 139.9808 139.9808 0 489.9008 0 139.9808 0 0-139.9808 0-559.9104 69.9968 0 0-139.9808L691.9872 124.8192zM272.064 824.7104l0-559.9104 69.9904 0 0 559.9104L272.064 824.7104zM482.0352 824.7104l0-559.9104 69.9776 0 0 559.9104L482.0352 824.7104zM761.9712 824.7104l-69.984 0 0-559.9104 69.984 0L761.9712 824.7104z" p-id="2411" fill="#ffffff"></path></svg>