<?xml version="1.0" standalone="no"?><!DOCTYPE svg PUBLIC "-//W3C//DTD SVG 1.1//EN" "http://www.w3.org/Graphics/SVG/1.1/DTD/svg11.dtd"><svg t="1494743716370" class="icon" style="" viewBox="0 0 1024 1024" version="1.1" xmlns="http://www.w3.org/2000/svg" p-id="4024" xmlns:xlink="http://www.w3.org/1999/xlink" width="80" height="80"><defs><style type="text/css"></style></defs><path d="M724.93774 251.78449 527.524578 70.527286 330.11244 251.78449 101.247962 251.78449l0 668.25988L953.794032 920.04437 953.794032 251.78449 724.93774 251.78449zM527.524578 107.154485 685.059498 251.78449 369.989659 251.78449 527.524578 107.154485zM926.82275 893.075135 128.217197 893.075135 128.217197 278.754748l172.521239 0L754.310721 278.754748l172.513052 0L926.82275 893.075135 926.82275 893.075135z" p-id="4025" fill="#d1fe04"></path><path d="M171.665755 845.877183l68.925812 0 344.612689 0 298.169937 0L883.374192 325.951677 171.665755 325.951677 171.665755 845.877183zM268.317025 818.907948c13.468756-18.703991 33.357735-49.451272 55.56655-94.025467l178.115654 0c22.194488 44.572148 42.057885 75.323523 55.507198 94.025467L268.317025 818.907948 268.317025 818.907948zM336.729138 697.9112c25.354458-55.131645 52.581566-127.417995 76.191286-219.692584 23.656793 92.270497 50.89311 164.558893 76.239382 219.692584L336.729138 697.9112zM748.524948 818.907948l-43.448558 0 0-94.025467 43.448558 0L748.524948 818.907948zM775.495206 818.907948l0-201.151299 80.909751 0 0 201.150276-80.909751 0L775.495206 818.907948zM198.636013 352.921935l657.768945 0 0 237.865479L748.524948 590.787414l0 107.124809-70.418816 0 0 120.995725-86.59524 0c-61.921281-76.394924-100.081393-175.070294-129.537262-267.540336-6.688329-20.995173-12.868075-42.152029-18.58938-63.430658-3.369747-12.533454-6.578836-25.108864-9.637498-37.722136-2.463098-10.156314-3.367701-29.013801-9.42158-37.410028-5.90857-8.194636-16.951067-8.185426-22.849404 0.014326-5.02648 6.988158-5.886057 22.689768-7.838525 30.91101-5.894244 24.812105-12.369725 49.487088-19.49296 73.974805-20.481474 70.41063-46.140876 139.682319-79.737042 204.949812-17.22736 33.467229-36.308951 66.939575-60.119239 96.253204l-35.651988 0L198.636013 352.921935z" p-id="4026" fill="#d1fe04"></path></svg>