<?xml version="1.0" standalone="no"?><!DOCTYPE svg PUBLIC "-//W3C//DTD SVG 1.1//EN" "http://www.w3.org/Graphics/SVG/1.1/DTD/svg11.dtd"><svg t="1494743394365" class="icon" style="" viewBox="0 0 1024 1024" version="1.1" xmlns="http://www.w3.org/2000/svg" p-id="2505" xmlns:xlink="http://www.w3.org/1999/xlink" width="80" height="80"><defs><style type="text/css"></style></defs><path d="M880.421954 497.579569c-31.202653 0-59.878762 10.784624-82.705654 28.697599l0-96.010681c0-13.118785-10.643408-23.763217-23.763217-23.763217L636.134205 406.503271c-7.096628-7.889691-43.24185-53.299927 2.777253-115.471918 60.381206-81.592296 24.845874-154.087401-2.397606-181.036169-9.282411-9.18929-24.133653-9.112542-33.385365 0.10847-9.251711 9.204639-9.282411 24.211425-0.169869 33.539884 4.996804 5.120624 47.448662 51.980885-2.258437 119.107725-41.517579 56.101739-36.251645 108.421338-20.324908 143.753031L448.449615 406.504294c-6.374174-9.441023-24.037463-42.189891 3.14462-83.850733 43.828204-67.14219 17.017582-122.402771-3.295046-142.236492-9.343809-9.17394-24.413016-8.973372-33.602306 0.402159-9.17394 9.390881-8.988722 24.428366 0.402159 33.602306 0.309038 0.293689 30.384008 30.662347-3.295046 82.257445-27.108405 41.534975-25.286919 81.381495-15.683191 109.825314L261.676791 406.504294c-3.801583-9.606799-9.564843-30.670533 2.366907-50.820456 32.085766-54.208623 0.216941-99.677187-1.160429-101.594863-7.658424-10.658757-22.494317-13.042037-33.168424-5.414313-10.643408 7.658424-13.072737 22.509666-5.414313 33.168424 0.154519 0.216941 15.285125 21.844517-1.160429 49.629327-16.383132 27.682479-15.437597 55.175647-10.927887 75.03188L100.086509 406.504294c-13.118785 0-23.763217 10.643408-23.763217 23.763217l0 129.906675c0 198.874443 161.807223 360.680643 360.695992 360.680643 147.612942 0 274.728038-89.168856 330.498226-216.429261 23.926946 37.123502 65.546855 61.816904 112.904443 61.816904 74.073042 0 134.331451-60.257385 134.331451-134.331451S954.494996 497.579569 880.421954 497.579569zM437.020308 873.328395c-172.682921 0-313.170582-140.488685-313.170582-313.155233L123.849726 454.029704l626.341165 0 0 106.143459C750.190891 732.840734 609.703229 873.328395 437.020308 873.328395zM880.421954 718.716039c-47.866171 0-86.805018-38.939871-86.805018-86.805018 0-47.866171 38.939871-86.805018 86.805018-86.805018 47.866171 0 86.805018 38.939871 86.805018 86.805018C967.227995 679.776168 928.288125 718.716039 880.421954 718.716039z" p-id="2506" fill="#d1fe04"></path></svg>