<?xml version="1.0" standalone="no"?><!DOCTYPE svg PUBLIC "-//W3C//DTD SVG 1.1//EN" "http://www.w3.org/Graphics/SVG/1.1/DTD/svg11.dtd"><svg t="1495674090025" class="icon" style="" viewBox="0 0 1024 1024" version="1.1" xmlns="http://www.w3.org/2000/svg" p-id="5249" xmlns:xlink="http://www.w3.org/1999/xlink" width="32" height="32"><defs><style type="text/css"></style></defs><path d="M511.103 0c27.848 0 50.307 22.558 50.307 50.307v154.812c0 27.849-22.559 50.307-50.307 50.307-27.848 0-50.307-22.558-50.307-50.307V50.406C460.696 22.558 483.255 0 511.103 0z" fill="#EAEAEA" p-id="5250"></path><path d="M776.31 76.059c24.056 13.874 32.34 44.717 18.467 68.772L717.32 278.982c-13.874 24.056-44.717 32.34-68.772 18.466-24.056-13.874-32.34-44.717-18.466-68.772l77.456-134.052c13.974-24.155 44.717-32.44 68.773-18.565z" fill="#9B9B9B" p-id="5251"></path><path d="M944 260.417c13.874 24.055 5.69 54.898-18.466 68.772l-134.051 77.456c-24.056 13.875-54.899 5.69-68.773-18.465-13.874-24.056-5.69-54.898 18.466-68.773l134.051-77.456c24.056-13.874 54.799-5.59 68.773 18.466z" fill="#9D9B9B" p-id="5252"></path><path d="M1021.456 501.27c0 27.848-22.558 50.307-50.307 50.307H816.337c-27.849 0-50.307-22.559-50.307-50.307 0-27.848 22.558-50.307 50.307-50.307h154.812c27.849-0.1 50.307 22.459 50.307 50.307z" fill="#A2A0A0" p-id="5253"></path><path d="M944 761.687c-13.875 24.055-44.717 32.34-68.773 18.465l-134.051-77.456c-24.055-13.874-32.34-44.717-18.466-68.772 13.874-24.056 44.717-32.34 68.773-18.466l134.05 77.456c24.056 13.875 32.34 44.717 18.467 68.773z" fill="#A9A9A9" p-id="5254"></path><path d="M776.31 965.708c-24.055 13.874-54.897 5.69-68.772-18.466l-77.456-134.05c-13.874-24.056-5.69-54.899 18.466-68.773 24.055-13.875 54.898-5.69 68.772 18.465l77.457 134.052c13.874 24.055 5.689 54.798-18.466 68.772z" fill="#B1B1B1" p-id="5255"></path><path d="M511.103 1022.104c-27.848 0-50.307-22.559-50.307-50.307V816.984c0-27.848 22.558-50.307 50.307-50.307 27.848 0 50.307 22.559 50.307 50.307v154.813c0 27.748-22.559 50.307-50.307 50.307z" fill="#B9B9B9" p-id="5256"></path><path d="M245.795 965.708c-24.055-13.874-32.34-44.717-18.466-68.772l77.457-134.052c13.874-24.055 44.717-32.34 68.772-18.465 24.055 13.874 32.34 44.717 18.466 68.772l-77.456 134.051c-13.875 24.056-44.717 32.34-68.773 18.466z" fill="#C1C0C0" p-id="5257"></path><path d="M58.044 761.687c-13.875-24.056-5.69-54.898 18.465-68.773l134.052-77.456c24.055-13.874 54.898-5.69 68.772 18.466 13.874 24.055 5.69 54.898-18.466 68.772l-134.051 77.456c-24.055 13.875-54.898 5.59-68.772-18.465z" fill="#CAC9C9" p-id="5258"></path><path d="M0.65 501.27c0-27.848 22.558-50.307 50.307-50.307h154.812c27.849 0 50.307 22.558 50.307 50.307 0 27.848-22.558 50.307-50.307 50.307H50.957C23.208 551.577 0.65 529.018 0.65 501.27z" fill="#D4D4D4" p-id="5259"></path><path d="M58.044 260.417c13.874-24.056 44.717-32.34 68.772-18.466l134.051 77.456c24.056 13.875 32.34 44.717 18.466 68.773-13.874 24.055-44.717 32.34-68.772 18.465L76.509 329.19c-24.155-13.874-32.34-44.617-18.465-68.772z" fill="#DBDBDB" p-id="5260"></path><path d="M245.795 76.059c24.056-13.874 54.898-5.69 68.773 18.466l77.456 134.05c13.874 24.056 5.69 54.899-18.466 68.773-24.055 13.875-54.898 5.69-68.772-18.465L227.329 144.83c-13.874-24.055-5.59-54.798 18.466-68.772z" fill="#E2E2E2" p-id="5261"></path></svg>