<?xml version="1.0" standalone="no"?><!DOCTYPE svg PUBLIC "-//W3C//DTD SVG 1.1//EN" "http://www.w3.org/Graphics/SVG/1.1/DTD/svg11.dtd"><svg t="1499244471348" class="icon" style="" viewBox="0 0 1024 1024" version="1.1" xmlns="http://www.w3.org/2000/svg" p-id="7623" xmlns:xlink="http://www.w3.org/1999/xlink" width="128" height="128"><defs><style type="text/css"></style></defs><path d="M994.295647 516.984371c0 0 104.655923-257.495811-205.775849-461.575662 48.887964 36.015974 165.975878 156.351885 49.303964 427.855687 0 0-72.071947 168.615877-225.023835 278.655796 0 0 86.143937 49.695964 217.99184 40.82397 0 0 100.199927-86.967936 156.463885-257.359812 0 0 50.983963 234.287828-131.847903 301.727779 0 0-156.463885 67.447951-377.967723-74.543945 0 0-164.15188-104.999923-259.71181-288.303789C229.504207 465.040409 480.800023 63.176704 834.311764 158.472634c0 0-52.735961-141.991896-217.99984-138.439899C451.056045 23.584733 364.920108 57.296708 155.712261 273.832549c0 0-0.208 1.215999-0.432 3.527997-3.439997-57.847958 5.543996-130.207905 56.687958-184.559865 0 0 42.191969-78.095943 193.383858-76.319944l5.279996-15.975988c0 0-302.231779-25.967981-291.831786 294.615784 2.559998 79.039942 73.839946 434.831682 492.247639 589.247568 0 0 219.751839 70.991948 341.05575-70.991948C952.103678 813.384154 1050.543606 685.592248 994.295647 516.984371zM788.519797 55.408709c-11.511992-8.487994-19.255986-12.303991-19.255986-12.303991C775.871807 47.176715 782.255802 51.288712 788.519797 55.408709zM134.624276 760.136193c0 0-98.135928-133.727902-114.271916-205.879849 0 0-56.375959 216.567841 130.087905 294.631784C150.440265 848.880128 130.608279 792.36017 134.624276 760.136193zM799.15979 215.256592c0 0 27.26398 23.735983 49.215964 51.479962l0-23.071983c0 0-28.615979-30.287978-49.215964-49.695964L799.15979 215.256592zM518.999995 358.000488c4.503997 0 8.951993 0.264 13.34399 0.672-10.063993-2.095998-20.495985-3.199998-31.175977-3.199998-84.959938 0-153.831887 69.527949-153.831887 155.303886 0 85.767937 68.87195 155.295886 153.831887 155.295886 71.079948 0 130.727904-48.743964 148.375891-114.871916-20.823985 51.719962-71.375948 88.271935-130.551904 88.271935-77.743943 0-140.759897-63.015954-140.759897-140.735897C378.240098 421.000442 441.256052 358.000488 518.999995 358.000488zM543.503977 372.104477c-60.231956 0-109.07192 48.831964-109.07192 109.07992 0 60.239956 48.839964 109.07992 109.07192 109.07992 60.255956 0 109.09592-48.831964 109.09592-109.07992C652.591897 420.944442 603.759933 372.104477 543.503977 372.104477zM170.94425 888.0561c0 0 96.503929 101.087926 197.399855 135.9439l0-35.303974c0 0-83.231939-31.183977-193.879858-134.183902L170.94425 888.0561z" p-id="7624" fill="#4ba1ea"></path></svg>