<?xml version="1.0" standalone="no"?><!DOCTYPE svg PUBLIC "-//W3C//DTD SVG 1.1//EN" "http://www.w3.org/Graphics/SVG/1.1/DTD/svg11.dtd"><svg t="1494743724276" class="icon" style="" viewBox="0 0 1024 1024" version="1.1" xmlns="http://www.w3.org/2000/svg" p-id="4784" xmlns:xlink="http://www.w3.org/1999/xlink" width="80" height="80"><defs><style type="text/css"></style></defs><path d="M341.314 60.187h-135.546c-74.869 0-146.838 49.386-146.838 124.245v135.546c0 74.869 71.975 146.838 146.838 146.838h135.546c136.995 0 124.245-4.199 124.245-146.838v-135.546c0-74.869-49.386-124.245-124.245-124.245M420.382 304.91c0 110.962 12.4 116.726-94.135 116.726h-105.408c-58.238 0-116.726-58.494-116.726-116.726v-105.428c0-58.218 58.494-94.117 116.726-94.117h105.408c58.238 0 94.135 35.898 94.135 94.135v105.408z" p-id="4785" fill="#d1fe04"></path><path d="M341.314 557.187h-135.546c-74.869 0-146.838 49.398-146.838 124.245v135.546c0 74.845 71.975 146.838 146.838 146.838h135.546c74.869 0 124.245-71.994 124.245-146.838v-135.546c0-131.325 7.095-124.245-124.245-124.245M420.382 801.907c0 58.218-35.898 116.726-94.135 116.726h-105.408c-58.238 0-116.726-58.511-116.726-116.726v-105.428c0-58.218 58.494-94.117 116.726-94.117h105.408c102.156 0 94.135-7.995 94.135 94.117v105.428z" p-id="4786" fill="#d1fe04"></path><path d="M838.308 60.187h-135.546c-74.869 0-146.838 49.398-146.838 124.245v135.546c0 136.995 9.851 146.838 146.838 146.838h135.546c74.869 0 124.245-71.975 124.245-146.838v-135.546c0-74.845-49.386-124.245-124.245-124.245M917.381 304.938c0 58.218-35.898 116.688-94.135 116.688h-105.408c-106.558 0.005-116.726-10.121-116.726-116.688v-105.428c0-58.218 58.494-94.164 116.726-94.164h105.408c58.238 0 94.135 35.94 94.135 94.164v105.428z" p-id="4787" fill="#d1fe04"></path><path d="M838.308 557.187h-135.546c-136.995 0-146.838-12.72-146.838 124.245v135.546c0 74.845 71.975 146.838 146.838 146.838h135.546c74.869 0 124.245-71.994 124.245-146.838v-135.546c0-74.845-49.386-124.245-124.245-124.245M917.381 801.907c0 58.218-35.898 116.726-94.135 116.726h-105.408c-58.238 0-116.726-58.511-116.726-116.726v-105.428c0-106.541 10.162-94.117 116.726-94.117h105.408c58.238 0 94.135 35.898 94.135 94.117v105.428z" p-id="4788" fill="#d1fe04"></path></svg>