<?xml version="1.0" standalone="no"?><!DOCTYPE svg PUBLIC "-//W3C//DTD SVG 1.1//EN" "http://www.w3.org/Graphics/SVG/1.1/DTD/svg11.dtd"><svg t="1495601480096" class="icon" style="" viewBox="0 0 1024 1024" version="1.1" xmlns="http://www.w3.org/2000/svg" p-id="5072" xmlns:xlink="http://www.w3.org/1999/xlink" width="32" height="32"><defs><style type="text/css"></style></defs><path d="M512.241563 1024c-93.475679 0-179.929653-24.526836-254.725141-67.772759-71.281564-16.3444-140.226313-10.531534-206.833224 17.509225-14.034198 5.845621-29.206608 2.336815-37.394161-12.868349-15.207211-31.549564 7.016587-42.074957 25.696779-51.396628 36.229336-18.680192 81.773179-24.531954 123.854277-24.531954C63.51777 791.468974 0.418641 659.42612 0.418641 513.382846 0.418641 230.622064 229.440862 1.599843 512.201644 1.599843S1023.990788 230.622064 1023.990788 513.382846C1024.025589 794.977779 795.002345 1024 512.241563 1024L512.241563 1024 512.241563 1024zM512.241563 68.206754C266.875966 68.206754 68.230296 268.021343 68.230296 513.382846c0 244.194631 198.64567 444.010244 444.011267 444.010244 245.366621 0 444.010244-199.815613 444.010244-444.010244C956.251807 268.021343 757.60716 68.206754 512.241563 68.206754L512.241563 68.206754 512.241563 68.206754zM775.150163 660.59811c-78.298151 0-141.39728-63.099129-141.39728-141.402398 0-78.298151 63.099129-141.398304 141.39728-141.398304 78.304293 0 141.402398 63.099129 141.402398 141.398304C916.553585 597.498981 853.420678 660.59811 775.150163 660.59811L775.150163 660.59811 775.150163 660.59811zM775.150163 445.610087c-40.90399 0-74.789346 32.715413-74.789346 73.623497 0 40.90399 33.885356 74.795487 74.789346 74.795487 40.909108 0 73.624521-33.891497 73.624521-74.795487C848.774684 478.3255 816.020375 445.610087 775.150163 445.610087L775.150163 445.610087 775.150163 445.610087zM519.25815 391.871526c-78.303269 0-141.39728-63.094011-141.39728-141.398304 0-78.304293 63.094011-141.396256 141.39728-141.396256 78.304293 0 141.402398 63.091964 141.402398 141.396256C660.661571 328.778539 597.529689 391.871526 519.25815 391.871526L519.25815 391.871526 519.25815 391.871526zM519.25815 176.888621c-40.90399 0-74.789346 32.715413-74.789346 73.619403 0 40.909108 33.885356 73.623497 74.789346 73.623497 40.910132 0 73.624521-32.714389 73.624521-73.623497C592.882671 209.604034 560.129386 176.888621 519.25815 176.888621L519.25815 176.888621 519.25815 176.888621zM249.327845 660.59811c-78.298151 0-141.398304-63.099129-141.398304-141.402398 0-78.298151 63.099129-141.398304 141.398304-141.398304 78.304293 0 141.402398 63.099129 141.402398 141.398304C390.730243 597.498981 327.632138 660.59811 249.327845 660.59811L249.327845 660.59811 249.327845 660.59811zM249.327845 445.610087c-40.90399 0-73.619403 32.715413-73.619403 73.623497 0 40.90399 32.715413 74.795487 73.619403 74.795487 40.909108 0 74.795487-33.891497 74.795487-74.795487C324.123332 478.3255 290.235929 445.610087 249.327845 445.610087L249.327845 445.610087 249.327845 445.610087zM431.599431 513.382846c0-45.582738 35.057346-81.774202 80.602212-81.774202 45.549984 0 80.608354 36.229336 80.608354 81.774202 0 45.549984-35.05837 80.608354-80.608354 80.608354C466.657801 593.9912 431.599431 558.971726 431.599431 513.382846L431.599431 513.382846 431.599431 513.382846zM519.25815 633.728318c78.304293 0 141.402398 63.094011 141.402398 141.398304 0 78.303269-63.099129 141.402398-141.402398 141.402398-78.303269 0-141.39728-63.099129-141.39728-141.402398C377.86087 696.821305 440.954881 633.728318 519.25815 633.728318L519.25815 633.728318 519.25815 633.728318zM519.25815 849.882189c40.910132 0 73.624521-33.885356 73.624521-74.789346 0-40.909108-32.714389-73.624521-73.624521-73.624521-40.90399 0-74.789346 32.715413-74.789346 73.624521C444.468804 816.034705 478.35416 849.882189 519.25815 849.882189L519.25815 849.882189zM519.25815 849.882189" p-id="5073" fill="#ffffff"></path></svg>