<?xml version="1.0" standalone="no"?><!DOCTYPE svg PUBLIC "-//W3C//DTD SVG 1.1//EN" "http://www.w3.org/Graphics/SVG/1.1/DTD/svg11.dtd"><svg t="1495601608578" class="icon" style="" viewBox="0 0 1024 1024" version="1.1" xmlns="http://www.w3.org/2000/svg" p-id="8682" xmlns:xlink="http://www.w3.org/1999/xlink" width="32" height="32"><defs><style type="text/css"></style></defs><path d="M201.69697 496.484848 170.666667 496.484848C170.666667 307.971654 323.486805 155.151515 512 155.151515 700.513195 155.151515 853.333333 307.971654 853.333333 496.484848L822.30303 496.484848 791.272727 496.484848C791.272727 342.24678 666.238068 217.212121 512 217.212121 357.761932 217.212121 232.727273 342.24678 232.727273 496.484848L201.69697 496.484848Z" p-id="8683" fill="#ffffff"></path><path d="M387.878788 620.606061 496.484848 620.606061 496.484848 837.818182 387.878788 837.818182C327.897318 837.818182 279.272727 789.071542 279.272727 729.212121 279.272727 669.230651 328.019368 620.606061 387.878788 620.606061ZM382.236914 782.406926 480.969697 782.406926 480.969697 822.30303 480.969697 636.121212 480.969697 676.017316 382.236914 676.017316C351.142996 676.017316 325.818182 699.876478 325.818182 729.212121 325.818182 758.529244 351.123354 782.406926 382.236914 782.406926Z" p-id="8684" fill="#ffffff"></path><path d="M589.575758 620.606061 589.575758 775.757576C589.575758 783.423553 597.663131 791.272727 605.090909 791.272727L744.727273 791.272727 698.181818 837.818182 698.181818 620.606061 721.454545 620.606061 744.727273 620.606061 744.727273 837.818182 605.090909 837.818182C573.204708 837.818182 543.030303 810.360382 543.030303 775.757576L543.030303 620.606061 566.30303 620.606061 589.575758 620.606061Z" p-id="8685" fill="#ffffff"></path><path d="M496.484848 465.454545 496.484848 837.818182 449.939394 837.818182 449.939394 465.454545Z" p-id="8686" fill="#ffffff"></path><path d="M170.666667 806.787879 170.666667 837.818182C76.410069 837.818182 0 761.408112 0 667.151515 0 572.894919 76.410069 496.484848 170.666667 496.484848L170.666667 527.515152 170.666667 558.545455C110.685196 558.545455 62.060606 607.170045 62.060606 667.151515 62.060606 727.132985 110.685196 775.757576 170.666667 775.757576L170.666667 806.787879Z" p-id="8687" fill="#ffffff"></path><path d="M853.333333 806.787879 853.333333 837.818182C947.58993 837.818182 1024 761.408112 1024 667.151515 1024 572.894919 947.58993 496.484848 853.333333 496.484848L853.333333 527.515152 853.333333 558.545455C913.314804 558.545455 961.939394 607.170045 961.939394 667.151515 961.939394 727.132985 913.314804 775.757576 853.333333 775.757576L853.333333 806.787879Z" p-id="8688" fill="#ffffff"></path><path d="M170.666667 496.484848l62.060606 0 0 341.333333-62.060606 0 0-341.333333Z" p-id="8689" fill="#ffffff"></path><path d="M791.272727 496.484848l62.060606 0 0 341.333333-62.060606 0 0-341.333333Z" p-id="8690" fill="#ffffff"></path></svg>