<?xml version="1.0" standalone="no"?><!DOCTYPE svg PUBLIC "-//W3C//DTD SVG 1.1//EN" "http://www.w3.org/Graphics/SVG/1.1/DTD/svg11.dtd"><svg t="1499086925934" class="icon" style="" viewBox="0 0 1024 1024" version="1.1" xmlns="http://www.w3.org/2000/svg" p-id="1347" xmlns:xlink="http://www.w3.org/1999/xlink" width="32" height="32"><defs><style type="text/css"></style></defs><path d="M945.063 122.32H81.516c-31.373 0-56.812 25.437-56.812 56.812v22.725c0 31.373 25.437 56.812 56.812 56.812h863.541c31.373 0 56.812-25.437 56.812-56.812v-22.725c0.005-31.373-25.426-56.812-56.797-56.812z m0 318.141H81.516c-31.373 0-56.812 25.437-56.812 56.812v22.725c0 31.373 25.437 56.812 56.812 56.812h863.541c31.373 0 56.812-25.437 56.812-56.812v-22.725c0.005-31.373-25.426-56.812-56.797-56.812z m0 318.159H81.516c-31.373 0-56.812 25.437-56.812 56.812v22.725c0 31.373 25.437 56.812 56.812 56.812h863.541c31.373 0 56.812-25.426 56.812-56.812v-22.725c0.005-31.382-25.426-56.812-56.797-56.812z" fill="#ffffff" p-id="1348"></path></svg>