<?xml version="1.0" standalone="no"?><!DOCTYPE svg PUBLIC "-//W3C//DTD SVG 1.1//EN" "http://www.w3.org/Graphics/SVG/1.1/DTD/svg11.dtd"><svg t="1499239460070" class="icon" style="" viewBox="0 0 1024 1024" version="1.1" xmlns="http://www.w3.org/2000/svg" p-id="2361" xmlns:xlink="http://www.w3.org/1999/xlink" width="48" height="48"><defs><style type="text/css"></style></defs><path d="M763.2 484.08l-27.904 0L735.296 260.784c0-107.904-99.984-195.376-223.296-195.376S288.704 152.88 288.704 260.784l0 223.296L260.8 484.08c-46.256 0-83.728 37.472-83.728 83.744l0 307.024c0 46.224 37.488 83.728 83.728 83.728l502.4 0c46.272 0 83.728-37.52 83.728-83.728L846.928 567.824C846.944 521.552 809.472 484.08 763.2 484.08zM567.824 775.632l0 43.408c0 30.816-25.008 55.824-55.824 55.824-30.832 0-55.808-25.008-55.808-55.824l0-43.408c-33.232-19.36-55.824-54.944-55.824-96.16 0-61.664 49.984-111.648 111.648-111.648s111.648 49.968 111.648 111.648C623.648 720.688 601.04 756.272 567.824 775.632zM623.648 456.176c0 9.84-2.672 19.152-6.848 27.904l-209.6 0c-4.176-8.752-6.848-18.064-6.848-27.904L400.352 260.784c0-46.272 49.984-83.728 111.648-83.728s111.648 37.472 111.648 83.728L623.648 456.176z" p-id="2362" fill="#9c9d9f"></path></svg>