<?xml version="1.0" standalone="no"?><!DOCTYPE svg PUBLIC "-//W3C//DTD SVG 1.1//EN" "http://www.w3.org/Graphics/SVG/1.1/DTD/svg11.dtd"><svg t="1495601735812" class="icon" style="" viewBox="0 0 1000 1000" version="1.1" xmlns="http://www.w3.org/2000/svg" p-id="10804" xmlns:xlink="http://www.w3.org/1999/xlink" width="32" height="32"><defs><style type="text/css"></style></defs><path d="M910.7727 46.1987H118.08589736927314c-22.6436 0-40.9999 18.3556-40.9999 41.0002V879.8534593545576c0 22.6426 18.3563 40.9982 40.9999 40.9982h792.6878505270648c22.6436 0 40.9999-18.3556 40.9999-40.9982V87.19887915992956C951.7737 64.5542 933.4173 46.1987 910.7727 46.1987zM924.4391 866.1857c0 15.0958-12.2362 27.3325-27.3326 27.3325H131.75220559724016c-15.0964 0-27.3336-12.2377-27.3336-27.3325v-765.3211122858702c0-15.0958 12.2382-27.3325 27.3336-27.3325h765.3552340711308c15.0964 0 27.3326 12.2377 27.3326 27.3325L924.4391 866.1857 924.4391 866.1857zM329.7683 221.1281c-42.9397 0-77.7496 34.8054-77.7496 77.7443 0 42.9379 34.8099 77.7493 77.7496 77.7493 42.9427 0 77.7525-34.8114 77.7525-77.7493C407.5198 255.9335 372.711 221.1281 329.7683 221.1281zM322.0002 488.7097c56.8628 0 104.4486 109.3319 150.3384 109.3319 45.8878 0 222.1817-218.6637 273.3402-218.6637 27.5525 0 108.6729 110.9897 177.671 213.4193v-45.2403270582545c-68.9981-102.4296-150.1185-213.4193-177.671-213.4193-51.1585 0-227.4523 218.6637-273.3402 218.6637-45.8898 0-93.4755-109.3319-150.3384-109.3319-33.9174 0-139.2175 92.3904-218.6719 166.9508v45.2403270582545C182.7837 581.101 288.0828 488.7097 322.0002 488.7097z" p-id="10805" fill="#ffffff"></path></svg>