<?xml version="1.0" standalone="no"?><!DOCTYPE svg PUBLIC "-//W3C//DTD SVG 1.1//EN" "http://www.w3.org/Graphics/SVG/1.1/DTD/svg11.dtd"><svg t="1495204738513" class="icon" style="" viewBox="0 0 1024 1024" version="1.1" xmlns="http://www.w3.org/2000/svg" p-id="6537" xmlns:xlink="http://www.w3.org/1999/xlink" width="32" height="32"><defs><style type="text/css"></style></defs><path d="M977.3424 556.2384l-87.9376 330.8624s-5.496 71.688-87.9408 66.1728H405.7408s-98.9328 0-109.9248-66.1728V423.8928s120.9152-115.8016 109.9248-242.6336c0 0-5.4976-104.7728 65.9536-110.288 0 0 115.4208-16.5424 131.9072 132.3456 0 0 38.4752 71.6896 0 198.52 0 0 313.2832-11.0272 373.7408 22.0576 0-0.0016 32.9792 16.5408 0 132.344zM130.9296 953.2736C76.2912 953.2736 32 898.96 32 831.9584V523.152c0-67.0032 44.2912-121.3168 98.9296-121.3168 54.64 0 98.9312 54.3136 98.9312 121.3168v308.8048c0 67.0032-44.2912 121.3168-98.9312 121.3168z" fill="#abcd03" p-id="6538"></path></svg>